<svg xmlns="http://www.w3.org/2000/svg" xmlns:xlink="http://www.w3.org/1999/xlink" xml:space="preserve" width="210mm" height="297mm" style="shape-rendering:geometricPrecision; text-rendering:geometricPrecision; image-rendering:optimizeQuality; fill-rule:evenodd; clip-rule:evenodd" viewBox="0 0 21000 29700">
 <defs>
  <style type="text/css">
   <![CDATA[
    .fil4 {fill:#020259}
    .fil12 {fill:#037502}
    .fil1 {fill:#068402}
    .fil9 {fill:#542912}
    .fil6 {fill:#605B13}
    .fil8 {fill:#63A861}
    .fil13 {fill:#A0B510}
    .fil14 {fill:#A0CB98}
    .fil7 {fill:#D6CFA3}
    .fil5 {fill:#DC640B}
    .fil10 {fill:#E56965}
    .fil11 {fill:#F0D05C}
    .fil3 {fill:#F60502}
    .fil2 {fill:#FDDE03}
    .fil0 {fill:white}
   ]]>
  </style>
 </defs>
 <g id="&#x421;&#x43B;&#x43E;&#x439;_x0020_1">
  <metadata id="CorelCorpID_0Corel-Layer"></metadata>
  <polygon class="fil0" points="24811.34,7042.15 24811.34,27309.23 45104.88,27309.23 45104.88,7042.15 "></polygon>
  <path class="fil1" d="M10402.11 5229.74c0,305.86 46.67,581.62 5.29,836.09 -58.22,-87.27 -242.36,-272.95 -331.02,-342.58 -127.72,122.76 -164.81,134.38 -277.53,236.75 0,98.9 365.75,429.98 464.56,514.01 -108.26,134.4 -7778.82,8080.94 -7795.47,8083.36 -250.77,36.49 -417.63,-703.84 -730.08,-382.72 -158.22,162.61 173.24,367.61 255.79,490.14 -87.03,0 -789.95,28.66 -793.75,26.46 -15.88,340.87 0,0 -15.88,340.87 61.6,3.57 0,0 739.24,49.57 -41.77,198.16 -456.68,528.65 -18.46,576.86 223.91,24.63 402.9,-658.8 650.6,-453.37 2012.55,1669.09 5911.47,5910.57 7799.08,7926.28 -53.9,22.75 -466.46,387.83 -523.87,396.88 208.52,312.8 0,0 208.52,312.8 415.89,-302.22 0,0 415.89,-302.22 14.66,868.35 0,0 14.66,868.35 307.94,4.84 0,0 307.94,4.84l-10.39 -867.9c403.55,407.14 0,0 412.75,416.42 232.83,-194.17 0,0 232.83,-194.17 -471.01,-603.46 0,0 -471.01,-603.46 -10.42,-63.54 7497.35,-7950.54 7782.01,-8054.98 82.49,-30.4 581.73,483.52 620.55,535.57 222.47,-256.73 0,0 222.47,-256.73 -410.69,-451.91 -271.9,-298.74 -379.27,-415.9l808.39 -16.54c-10.64,-342.55 0,0 -10.64,-342.55 -236.03,44.35 -549.03,30.65 -788.45,58.22l386.28 -449.8c-259.29,-243.42 2.23,38.02 -259.29,-243.42 -97.09,125.01 -366.17,382.71 -555.62,582.09 -3.57,-21.44 -7290.83,-7647.43 -7884.58,-8043.34 200.37,-195.3 292.49,-274.52 486.45,-482.36 -232.83,-243.42 0,0 -232.83,-243.42l-348.88 281.28c-3.75,-13.76 1.77,-744.92 15.88,-825.5l-402.16 -15.88z"></path>
  <path class="fil2" d="M6782.92 10711.36c208.14,-175.63 705.75,-559.67 933.27,-710.91 351.31,-233.52 765.33,-447.57 1157.65,-597.35 306.44,-116.97 680.51,-131.58 1004.39,-169.83 1111.49,-131.21 2185.38,2.35 3201.46,488.92 419.12,200.71 1117.57,875.13 1534.58,1058.51 -142.62,-305.87 -3989.04,-3942.1 -3995.21,-3942.1 -75.62,0 -2909.84,2897.77 -3202.49,3196.38 -136.42,139.17 -550.44,497.95 -633.65,676.38z"></path>
  <path class="fil3" d="M8784.58 9449.39c-331.58,152.32 -667.04,287.34 -978.96,480.99 -1278.94,793.9 -2120.05,1949.53 -2546.09,3384.92 -143.88,484.71 -179.12,1006.13 -179.12,1508.12 0,1400.41 483.63,2771.78 1409.94,3836.46 1430.45,1401.28 3290.94,2300.61 5342.23,1754.98 618.94,-145.65 1206.21,-429.31 1740.56,-776.5 3050.72,-1982.1 3445.59,-6619.05 741.23,-9071.98 -1017.38,-922.79 -2163.74,-1360.88 -3651.25,-1378.19 -776.1,-41.92 -1667.16,164.05 -1878.54,261.2z"></path>
  <path class="fil2" d="M14405.67 18671.22c368.57,-407.54 711.84,-854.5 932.4,-1360.2 798.08,-1830.12 824.6,-3961.31 -377.59,-5654.94 -430.45,-606.37 -956.13,-1102.89 -1589.75,-1497.57 -524.93,-326.97 -1074.53,-508.45 -1666.88,-660.66 -495.61,-127.34 -1053.22,-124.62 -1561.04,-76.31 -1271.77,121.05 -2505.34,696.47 -3384.28,1644.92 -1591.74,1717.65 -1932.65,4504.53 -731.26,6535.21 1206.24,2038.85 3559.02,3063.79 5861.79,2518.01 544.33,-129.01 1095.4,-364.36 1561.04,-672.76 321.68,-213.06 697.25,-490.08 955.57,-775.7z"></path>
  <path class="fil4" d="M10592.6 9717.08c-1531.72,0 -3086.44,730.81 -3985.81,1986.76 -359.76,502.36 -595.21,1078.44 -777.32,1664.49 -240.96,775.34 -412.22,1776.71 23.81,2513.15 730.49,1233.86 2763.84,1241.26 3203.6,-264.19 162.11,-554.94 68.48,-1104.55 29.98,-1666.87 -36.49,-532.48 -25.08,-1089.8 82.26,-1613.96 130.84,-638.92 459.69,-1274.87 811.03,-1818.06 164.59,-254.5 531.76,-517.31 612.45,-801.32z"></path>
  <path class="fil0" d="M14931.77 17390c116.44,-116.2 169.89,-299.75 234.16,-449.79 168.85,-394.28 285.09,-796.98 369.09,-1217.08 337.16,-1686.04 -179.39,-3228.13 -1313.23,-4497.92 -424.66,-475.56 -1022.35,-996.63 -1671.27,-1121.36 -1590.12,-305.62 -2913.59,1449.71 -1930.32,2841.15 523.35,740.57 1560.57,897.52 2274.28,1396.23 859.68,600.71 1457.8,1419.86 1851.69,2387.31 87.1,213.92 112.15,444.55 185.6,661.46z"></path>
  <g>
   <path class="fil5" d="M13741.15 10405l26.45 26.46 -26.45 -26.46 0 0zm-6641.05 26.46l26.46 26.46 -26.46 -26.46z"></path>
  </g>
  <g>
   <path class="fil6" d="M6809.06 10616.67l26.46 26.45 -26.46 -26.45 0 0zm873.13 0l26.46 26.45 -26.46 -26.45 0 0zm2222.5 0l26.46 26.45 -26.46 -26.45z"></path>
  </g>
  <g>
   <path class="fil6" d="M14508.44 10722.5l26.46 26.46 -26.46 -26.46 0 0zm-7831.67 26.46l26.46 26.46 -26.46 -26.46z"></path>
  </g>
  <polygon class="fil7" points="10566.15,10881.25 10592.6,10907.71 "></polygon>
  <g>
   <path class="fil8" d="M15249.27 10987.08l26.46 26.46 -26.46 -26.46 0 0zm-9339.79 26.46l26.46 26.46 -26.46 -26.46z"></path>
  </g>
  <g>
   <path class="fil9" d="M7205.94 11013.54l26.46 26.46 -26.46 -26.46 0 0zm2460.62 0l26.46 26.46 -26.46 -26.46z"></path>
  </g>
  <path class="fil2" d="M14317.93 10494.96c257.76,391.08 1108.95,1267.91 1162.64,1603.37 366.1,709.25 637.25,1501.17 692.39,2301.88 179.52,2607.2 -1539.88,5192.31 -4072.23,5911.87 -581.32,165.18 -1222.16,265.41 -1825.63,224.11 -344.19,-23.58 -157.91,13.47 -1031.87,-129.94 -952.5,-300.23 -1654.52,-814.37 -1878.54,-982.32 -1669.47,-1251.53 -2610.81,-3445.69 -2242.11,-5524.05 125.12,-705.33 397.99,-1442.93 745.65,-2063.75 154.33,-275.56 954.06,-1206.23 1284.8,-1499.92 -335.34,169.73 -1350.05,1336.17 -1614.07,1603.37 -652.73,660.59 -1285.93,1343.21 -1953.21,1987.82l-643.71 669.23c-65.34,64.4 -213.64,175.16 -187.78,282.21 30.55,126.42 199.42,245.96 282.48,341.58 284.85,327.89 608.54,625.26 911.75,935.93 1051.09,1077.02 2150.22,2117.57 3175.69,3218.03 802.93,861.61 1694.95,1641.07 2484.97,2513.54 226.32,249.92 479.98,475.51 718.87,714.37 73.37,73.37 180.24,227.15 291.04,240.22 155.95,18.39 370.31,-306.36 476.36,-403.47 463.73,-424.65 878.81,-900.85 1322.81,-1344.87 1499.53,-1499.64 2945.74,-3051.47 4445,-4550.84l1177.37 -1217.05c116.42,-113.99 419.2,-337.69 438.68,-502.74 12.17,-103.32 -123.56,-200.71 -187.3,-264.58 -208.57,-209 -418.7,-415.11 -616.08,-634.6 -522.66,-581.24 -1113.03,-1107.63 -1658.94,-1667.28 -364.86,-374.01 -1270.11,-1459.99 -1699.03,-1762.12z"></path>
  <g>
   <path class="fil6" d="M7020.73 11198.75l26.46 26.46 -26.46 -26.46 0 0zm2566.46 0l26.46 26.46 -26.46 -26.46z"></path>
  </g>
  <g>
   <path class="fil6" d="M6967.81 11251.67l26.46 26.45 -26.46 -26.45 0 0zm2592.92 0l26.46 26.45 -26.46 -26.45z"></path>
  </g>
  <path class="fil3" d="M11783.23 11267.81c-455.56,30.03 -536.63,649.81 -211.27,901.48 100.91,78.06 247.36,69.38 368.99,59.88 368.85,-28.81 511.12,-514.85 315.65,-789.83 -108.33,-152.4 -296.52,-183.2 -473.37,-171.53z"></path>
  <g>
   <path class="fil10" d="M11465.73 11410.42l26.46 26.45 -26.46 -26.45 0 0zm767.29 0l26.46 26.45 -26.46 -26.45z"></path>
  </g>
  <polygon class="fil10" points="11439.27,11436.87 11465.73,11463.33 "></polygon>
  <g>
   <path class="fil6" d="M6491.56 11860.21l26.46 26.46 -26.46 -26.46 0 0zm9622.03 8.81c-11.78,11.77 16.16,10.29 17.62,8.84 11.77,-11.78 -16.17,-10.3 -17.62,-8.84z"></path>
  </g>
  <g>
   <path class="fil10" d="M11412.81 11992.5l26.46 26.46 -26.46 -26.46 0 0zm873.13 0l26.46 26.46 -26.46 -26.46z"></path>
  </g>
  <polygon class="fil10" points="11439.27,12045.42 11465.73,12071.87 "></polygon>
  <g>
   <path class="fil10" d="M11465.73 12071.87l26.46 26.46 -26.46 -26.46 0 0zm767.29 0l26.46 26.46 -26.46 -26.46z"></path>
  </g>
  <g>
   <path class="fil10" d="M11492.19 12098.33l26.46 26.46 -26.46 -26.46 0 0zm714.37 0l26.46 26.46 -26.46 -26.46z"></path>
  </g>
  <polygon class="fil10" points="11518.65,12124.79 11545.1,12151.25 "></polygon>
  <g>
   <path class="fil5" d="M6200.52 12362.92l26.46 26.45 -26.46 -26.45 0 0zm9154.58 0l26.46 26.45 -26.46 -26.45z"></path>
  </g>
  <g>
   <path class="fil5" d="M15513.85 12706.87l26.46 26.46 -26.46 -26.46 0 0zm-9816.04 26.46l26.46 26.46 -26.46 -26.46z"></path>
  </g>
  <g>
   <path class="fil11" d="M6024.12 12750.98c-1.45,1.46 -2.93,29.4 8.84,17.62 1.46,-1.45 2.94,-29.39 -8.84,-17.62l0 0zm9763.13 0c-1.46,1.46 -2.94,29.4 8.84,17.62 1.45,-1.45 2.93,-29.39 -8.84,-17.62z"></path>
  </g>
  <g>
   <path class="fil11" d="M9110.94 12786.25l0 79.37 26.46 0c-6.65,-38.41 -8.34,-46.35 -26.46,-79.37l0 0zm1411.1 17.65c-1.46,1.45 -2.94,29.39 8.84,17.62 1.45,-1.46 2.93,-29.4 -8.84,-17.62z"></path>
  </g>
  <g>
   <path class="fil11" d="M10539.69 12839.17c18.1,41.8 21.3,47.01 52.91,79.37 -18.09,-41.8 -21.29,-47.01 -52.91,-79.37l0 0zm5035.89 17.64c-1.45,1.46 -2.94,29.4 8.84,17.63 1.45,-1.46 2.94,-29.4 -8.84,-17.63z"></path>
  </g>
  <g>
   <path class="fil6" d="M5962.4 12918.54l26.45 26.46 -26.45 -26.46 0 0zm3122.08 0l26.46 26.46 -26.46 -26.46z"></path>
  </g>
  <g>
   <path class="fil8" d="M16916.15 13156.67l26.45 26.45 -26.45 -26.45 0 0zm-13096.88 26.45l26.46 26.46 -26.46 -26.46 0 0zm476.25 0l26.46 26.46 -26.46 -26.46z"></path>
  </g>
  <g>
   <path class="fil8" d="M17630.52 13447.71l26.46 26.46 -26.46 -26.46 0 0zm-14111.1 35.27c-11.78,11.77 16.16,10.29 17.62,8.83 11.77,-11.77 -16.17,-10.29 -17.62,-8.83z"></path>
  </g>
  <g>
   <path class="fil11" d="M11509.84 13641.73c-11.78,11.77 16.16,10.29 17.62,8.83 11.77,-11.77 -16.17,-10.29 -17.62,-8.83l0 0zm4039.28 8.83c-1.45,1.46 -2.93,29.4 8.84,17.63 1.46,-1.46 2.94,-29.4 -8.84,-17.63z"></path>
  </g>
  <g>
   <path class="fil8" d="M19297.4 13976.87l26.45 26.46 -26.45 -26.46 0 0zm-16271.88 26.46l26.46 26.46 -26.46 -26.46z"></path>
  </g>
  <path class="fil3" d="M10407.4 14098.85c-939.88,242.28 -485.62,1697.27 449.79,1445.28 911.2,-245.45 474.32,-1683.51 -449.79,-1445.28z"></path>
  <path class="fil9" d="M7223.59 14726.52c-11.78,11.77 16.16,10.29 17.62,8.84 11.77,-11.78 -16.17,-10.3 -17.62,-8.84z"></path>
  <path class="fil3" d="M7258.85 14731.81c-609.2,148.09 -365.94,1157.55 264.56,999.12 659.92,-165.84 410.74,-1163.27 -264.56,-999.12z"></path>
  <path class="fil11" d="M13899.9 15273.33c29.21,62.37 51.75,89.33 105.83,132.3 -29.21,-62.37 -51.75,-89.33 -105.83,-132.3z"></path>
  <g>
   <path class="fil8" d="M18926.98 15273.33l26.46 26.46 -26.46 -26.46 0 0zm-16668.75 26.46l26.46 26.46 -26.46 -26.46 0 0zm396.87 0l26.46 26.46 -26.46 -26.46z"></path>
  </g>
  <g>
   <path class="fil5" d="M5089.27 15379.17l0 158.75 26.46 0c-1.24,-59.61 -3.33,-104.46 -26.46,-158.75l0 0zm5027.08 0l26.46 26.46 -26.46 -26.46z"></path>
  </g>
  <g>
   <path class="fil11" d="M5706.62 15608.48c-1.45,1.46 -2.93,29.4 8.84,17.62 1.46,-1.45 2.94,-29.39 -8.84,-17.62l0 0zm3360.21 0c-1.45,1.46 -2.94,29.4 8.84,17.62 1.45,-1.45 2.94,-29.39 -8.84,-17.62z"></path>
  </g>
  <g>
   <path class="fil6" d="M5724.27 15643.75l26.46 26.46 -26.46 -26.46 0 0zm3307.29 0l26.46 26.46 -26.46 -26.46z"></path>
  </g>
  <path class="fil12" d="M6306.35 17416.46c136.98,465.51 618.23,910.88 952.5,1243.51 1233.54,1227.62 2923.36,1539.56 4577.3,1164.49 686.56,-155.71 1471.66,-455.75 1911.64,-1032.19 865.05,-1133.37 153.9,-3098.41 -1408.94,-3010.67 -994.75,55.83 -1587.31,941.97 -2435.19,1327.07 -781.48,354.91 -1651.43,549.59 -2512.51,490.62 -368.83,-25.25 -721.84,-166.24 -1084.8,-182.83z"></path>
  <g>
   <path class="fil13" d="M11889.06 15855.42l26.46 26.46 -26.46 -26.46 0 0zm1005.42 0l26.46 26.46 -26.46 -26.46z"></path>
  </g>
  <g>
   <path class="fil13" d="M17498.23 15855.42l26.46 26.46 -26.46 -26.46 0 0zm-13811.25 26.46l26.46 26.45 -26.46 -26.45z"></path>
  </g>
  <path class="fil6" d="M13017.96 15917.14c-11.77,11.78 16.17,10.3 17.62,8.84 11.78,-11.77 -16.16,-10.29 -17.62,-8.84z"></path>
  <g>
   <path class="fil9" d="M5883.02 15934.79l26.46 26.46 -26.46 -26.46 0 0zm2998.6 17.65c-1.45,1.45 -2.93,29.39 8.84,17.62 1.46,-1.45 2.94,-29.39 -8.84,-17.62z"></path>
  </g>
  <g>
   <path class="fil13" d="M13106.15 15934.79l26.45 26.46 -26.45 -26.46 0 0zm4312.7 0l26.46 26.46 -26.46 -26.46 0 0zm-13652.5 26.46l26.46 26.46 -26.46 -26.46z"></path>
  </g>
  <g>
   <path class="fil13" d="M11598.02 15961.25l26.46 26.46 -26.46 -26.46 0 0zm1561.04 0l26.46 26.46 -26.46 -26.46 0 0zm4233.34 0l26.45 26.46 -26.45 -26.46z"></path>
  </g>
  <polygon class="fil8" points="13370.73,16093.54 13397.19,16120 "></polygon>
  <polygon class="fil13" points="13450.1,16146.46 13476.56,16172.92 "></polygon>
  <g>
   <path class="fil11" d="M8687.6 16278.75c38.55,-29.18 50.2,-40.83 79.38,-79.37 -56.2,23.78 -55.59,23.17 -79.38,79.37l0 0zm5794.38 -79.37l26.46 105.83 26.46 0c-14.93,-46.36 -24.32,-67.26 -52.92,-105.83z"></path>
  </g>
  <g>
   <path class="fil5" d="M15946 16375.77c-1.46,1.46 -2.94,29.4 8.84,17.62 1.45,-1.45 2.93,-29.39 -8.84,-17.62l0 0zm-10671.52 8.81l26.46 105.84 26.46 0c-13.52,-51.65 -19.4,-65.01 -52.92,-105.84z"></path>
  </g>
  <g>
   <path class="fil13" d="M10751.35 16543.33l26.46 26.46 -26.46 -26.46 0 0zm6085.42 0l26.46 26.46 -26.46 -26.46z"></path>
  </g>
  <g>
   <path class="fil13" d="M10513.23 16702.08l26.46 26.46 -26.46 -26.46 0 0zm3386.67 0l26.45 26.46 -26.45 -26.46z"></path>
  </g>
  <g>
   <path class="fil5" d="M5671.35 16860.83l26.46 26.46 -26.46 -26.46 0 0zm10107.09 0l26.46 26.46 -26.46 -26.46z"></path>
  </g>
  <path class="fil3" d="M12497.6 16960.45c-674.71,218.68 -346.07,1212.03 309.96,970.25 557.43,-205.45 270.04,-1158.26 -309.96,-970.25z"></path>
  <g>
   <path class="fil13" d="M14032.19 16993.13l26.46 26.45 -26.46 -26.45 0 0zm-9233.96 26.45l26.46 26.46 -26.46 -26.46z"></path>
  </g>
  <g>
   <path class="fil8" d="M16863.23 17046.04l26.46 26.46 -26.46 -26.46 0 0zm-12541.25 26.46l26.46 26.46 -26.46 -26.46z"></path>
  </g>
  <g>
   <path class="fil8" d="M16095.94 17813.33l26.46 26.46 -26.46 -26.46 0 0zm-11006.67 26.46l26.46 26.46 -26.46 -26.46z"></path>
  </g>
  <g>
   <path class="fil5" d="M5909.48 17839.79l26.46 26.46 -26.46 -26.46 0 0zm264.58 0l26.46 26.46 -26.46 -26.46 0 0zm9128.13 0l26.46 26.46 -26.46 -26.46z"></path>
  </g>
  <g>
   <path class="fil13" d="M6914.9 18289.58l26.45 26.46 -26.45 -26.46 0 0zm7099.64 17.65c-1.46,1.46 -2.94,29.4 8.84,17.62 1.45,-1.45 2.93,-29.39 -8.84,-17.62l0 0zm1128.9 -17.65l26.46 26.46 -26.46 -26.46z"></path>
  </g>
  <g>
   <path class="fil8" d="M7126.56 18527.71l26.46 26.46 -26.46 -26.46 0 0zm6773.34 0l26.45 26.46 -26.45 -26.46z"></path>
  </g>
  <g>
   <path class="fil13" d="M13794.06 18686.46l26.46 26.46 -26.46 -26.46 0 0zm952.5 0l26.46 26.46 -26.46 -26.46 0 0zm-7434.79 26.46l26.46 26.46 -26.46 -26.46z"></path>
  </g>
  <g>
   <path class="fil6" d="M5988.85 18765.83l26.46 26.46 -26.46 -26.46 0 0zm7752.3 0l26.45 26.46 -26.45 -26.46z"></path>
  </g>
  <g>
   <path class="fil13" d="M6623.85 18871.67l26.46 26.46 -26.46 -26.46 0 0zm7037.92 0l26.46 26.46 -26.46 -26.46z"></path>
  </g>
  <g>
   <path class="fil14" d="M14720.1 19215.63l26.46 26.45 -26.46 -26.45 0 0zm-8228.54 26.45l26.46 26.46 -26.46 -26.46z"></path>
  </g>
  <g>
   <path class="fil13" d="M14111.56 19347.92l26.46 26.46 -26.46 -26.46 0 0zm-5900.21 26.46l26.46 26.45 -26.46 -26.45z"></path>
  </g>
  <g>
   <path class="fil5" d="M7470.52 19506.67l26.46 26.46 -26.46 -26.46 0 0zm6261.82 8.81c-11.78,11.77 16.16,10.29 17.62,8.83 11.77,-11.77 -16.17,-10.29 -17.62,-8.83z"></path>
  </g>
  <g>
   <path class="fil13" d="M8793.44 19665.42l26.46 26.46 -26.46 -26.46 0 0zm3518.96 0l26.45 26.46 -26.45 -26.46z"></path>
  </g>
  <g>
   <path class="fil13" d="M8837.54 19700.69c-11.77,11.77 16.17,10.29 17.62,8.83 11.78,-11.77 -16.16,-10.29 -17.62,-8.83l0 0zm3395.48 -8.81l26.46 26.45 -26.46 -26.45z"></path>
  </g>
 </g>
</svg>